# xmcd
#
# Track frame offsets:
#	150
#	24458
#	48305
#	77982
#	104506
#	129079
#	150184
#	177199
#	196805
#	220645
#
# Disc length: 3252 seconds
#
# Revision: 0
# Processed by: cddbd v1.5.2PL0 Copyright (c) Steve Scherf et al.
# Submitted via: EZCDAudioConverter 8.0.2.1
#
DISCID=720cb20a
DTITLE=Mạnh Quỳnh, Phi Nhung - Đừng Nói Xa Nhau
DYEAR=2010
DGENRE=
TTITLE0=Mạnh Quỳnh - Đêm tâm sự
TTITLE1=Phi Nhung - Giận hờn 2
TTITLE2=Mạnh Quỳnh - Đôi mắt người xưa
TTITLE3=Phi Nhung - Đò tình lỡ chuyến
TTITLE4=Mạnh Quỳnh, Phi Nhung - Phải duyên hay nợ
TTITLE5=Mạnh Quỳnh - Sao em nỡ đành quên
TTITLE6=Phi Nhung - Lẻ loi
TTITLE7=Mạnh Quỳnh - Đưa em về bến đò
TTITLE8=Phi Nhung - Chờ người
TTITLE9=Mạnh Quỳnh, Phi Nhung - Đừng rời xa nhau
EXTD=
EXTT0=
EXTT1=
EXTT2=
EXTT3=
EXTT4=
EXTT5=
EXTT6=
EXTT7=
EXTT8=
EXTT9=
PLAYORDER=
